<?xml version="1.0" standalone="no"?>
<!DOCTYPE svg PUBLIC "-//W3C//DTD SVG 20010904//EN"
 "http://www.w3.org/TR/2001/REC-SVG-20010904/DTD/svg10.dtd">
<svg version="1.0" xmlns="http://www.w3.org/2000/svg"
 width="700.000000pt" height="700.000000pt" viewBox="0 0 700.000000 700.000000"
 preserveAspectRatio="xMidYMid meet">
<metadata>
Created by potrace 1.14, written by Peter Selinger 2001-2017
</metadata>
<g transform="translate(0.000000,700.000000) scale(0.100000,-0.100000)"
fill="#000000" stroke="none">
<path d="M3045 6103 c-77 -39 -97 -74 -141 -243 -93 -361 -116 -450 -131 -500
-8 -30 -16 -62 -18 -70 -2 -8 -26 -103 -55 -210 -28 -107 -53 -203 -55 -212
-2 -9 -16 -61 -30 -115 -15 -54 -28 -107 -31 -118 -2 -11 -35 -136 -72 -277
l-68 -257 45 -10 c25 -6 66 -13 91 -17 25 -3 54 -8 65 -10 11 -3 47 -9 80 -14
33 -5 69 -11 80 -13 11 -3 42 -8 68 -11 27 -4 56 -9 65 -10 10 -2 40 -7 67
-11 28 -5 53 -9 58 -11 4 -1 16 -2 27 -3 22 -1 28 -17 8 -18 -14 -1 -21 -2
-138 -28 -126 -28 -253 -55 -284 -61 -16 -3 -32 -6 -35 -8 -3 -2 -24 -7 -46
-10 -22 -4 -58 -11 -80 -17 -39 -11 -49 -13 -112 -25 -18 -3 -35 -14 -37 -23
-6 -21 -66 -246 -71 -269 -2 -9 -14 -53 -26 -97 -11 -44 -22 -87 -24 -95 -2
-8 -31 -118 -65 -245 -34 -126 -63 -237 -65 -245 -6 -28 -107 -413 -136 -523
-16 -59 -29 -113 -29 -121 0 -8 18 -16 48 -20 26 -4 110 -15 187 -26 164 -22
206 -28 260 -37 22 -3 49 -7 60 -8 46 -6 472 -66 495 -70 14 -3 52 -8 84 -11
70 -8 122 -21 91 -24 -11 -1 -28 -3 -38 -5 -33 -6 -162 -28 -182 -31 -11 -1
-78 -12 -150 -24 -71 -11 -146 -23 -165 -26 -32 -5 -247 -39 -585 -93 -71 -12
-139 -23 -150 -25 -11 -2 -42 -7 -70 -11 -37 -5 -275 -119 -940 -452 l-890
-444 135 6 c280 13 317 15 400 20 47 3 126 7 175 10 191 11 367 23 435 30 25
2 81 7 125 10 44 3 96 7 115 10 19 2 62 7 95 10 33 3 67 7 75 10 8 2 44 6 80
10 36 3 75 7 85 9 11 2 43 7 70 10 28 4 61 8 75 11 14 2 48 7 75 10 28 3 84
10 125 15 69 9 95 12 215 24 22 3 63 7 90 11 59 6 100 11 275 30 25 2 74 7
110 10 36 4 81 8 100 10 31 3 119 13 190 20 14 1 61 5 105 9 44 4 96 9 115 11
19 2 67 7 105 10 39 3 88 8 110 10 22 2 69 7 105 10 36 3 85 8 110 11 25 2 72
6 105 9 33 3 80 8 105 10 65 8 115 13 201 20 42 3 85 7 95 9 11 2 59 7 109 11
49 3 92 8 95 10 3 1 41 6 84 10 43 4 86 8 95 10 9 1 48 6 86 9 39 4 81 9 95
11 14 2 50 7 80 10 30 3 71 8 90 10 19 3 53 7 75 10 135 16 526 70 665 91 105
16 340 126 615 286 293 171 689 417 683 424 -2 1 -111 5 -243 8 -132 4 -328 9
-435 12 -107 3 -258 7 -335 9 -77 2 -259 7 -405 11 -146 4 -295 7 -332 8 -37
1 -69 4 -71 6 -4 4 -23 38 -109 190 -11 19 -53 94 -93 165 -40 72 -82 146 -93
165 -11 19 -55 97 -98 172 l-77 137 -51 15 c-28 9 -217 64 -419 123 -388 114
-384 112 -262 127 22 3 85 12 140 20 55 9 125 18 155 22 30 3 57 8 60 9 3 2
32 7 65 10 32 4 66 9 74 10 9 2 22 4 29 4 9 1 3 21 -20 64 -18 34 -35 64 -38
67 -5 5 -16 25 -59 103 -16 29 -37 68 -48 87 -91 157 -346 608 -393 696 -30
55 -41 65 -109 102 -42 23 -105 58 -141 78 -36 19 -92 50 -125 68 -33 19 -82
46 -110 61 -27 16 -72 39 -99 52 -26 13 -46 26 -44 29 3 2 115 -14 249 -36
134 -23 255 -43 269 -45 14 -2 87 -13 162 -25 75 -11 152 -23 171 -25 19 -3
79 -12 133 -20 55 -9 115 -18 134 -21 19 -2 60 -8 90 -14 30 -5 73 -12 95 -15
22 -3 69 -10 105 -16 36 -6 83 -13 105 -16 22 -3 106 -15 188 -28 81 -12 147
-21 147 -19 0 1 -30 26 -67 55 -38 30 -70 56 -73 59 -3 3 -140 113 -305 245
-165 132 -306 246 -313 253 -8 7 -30 25 -50 40 -21 15 -42 32 -48 37 -8 8
-426 344 -668 537 -86 69 -324 262 -341 276 -97 83 -168 106 -230 75z"/>
</g>
</svg>
